<!--?xml version="1.0" encoding="UTF-8" standalone="no"?-->
<!-- Created with Inkscape (http://www.inkscape.org/) -->

<svg height="100%" id="svg1" version="1.1" viewBox="0 0 236.74462 173.16631" width="100%" sodipodi:docname="dealpig-chain-only-animated.svg" inkscape:export-filename="dealpig-blue.png" inkscape:export-xdpi="96" inkscape:export-ydpi="96" xmlns:inkscape="http://www.inkscape.org/namespaces/inkscape" xmlns:sodipodi="http://sodipodi.sourceforge.net/DTD/sodipodi-0.dtd" xmlns:xlink="http://www.w3.org/1999/xlink" xmlns="http://www.w3.org/2000/svg" xmlns:svg="http://www.w3.org/2000/svg">
  <style id="style1">
@keyframes sparkle {
  0%, 100% { fill: #FFD700; filter: drop-shadow(0 0 1px #FFD700); }
  50% { fill: #fffacd; filter: drop-shadow(0 0 4px #ffffff); }
}
.sparkle {
  animation: sparkle 1.5s infinite;
}
</style>
  <sodipodi:namedview bordercolor="#000000" borderopacity="0.25" id="namedview1" inkscape:deskcolor="#d1d1d1" inkscape:document-units="mm" inkscape:pagecheckerboard="0" inkscape:pageopacity="0.0" inkscape:showpageshadow="2" pagecolor="#ffffff">
    <inkscape:page x="-1.3245219e-15" y="0" width="236.74463" height="173.16631" id="page1" margin="0" bleed="0"></inkscape:page>
  </sodipodi:namedview>
  <defs id="defs1">
    <pattern inkscape:collect="always" xlink:href="#Cubes" preserveAspectRatio="none" id="pattern128" patternTransform="scale(3.7,3.8)" x="0" y="2"></pattern>
    <pattern inkscape:collect="always" xlink:href="#Cubes" preserveAspectRatio="none" id="pattern127" patternTransform="scale(0.4)"></pattern>
    <pattern patternUnits="userSpaceOnUse" width="142" height="123" patternTransform="scale(0.4)" id="Cubes" preserveAspectRatio="none" style="fill:#1c4f70" x="0" y="0" inkscape:label="Cubes" inkscape:collect="always" inkscape:isstock="true">
      <path id="path14" style="fill-opacity: 0.6; stroke-width: 2; stroke-miterlimit: 10;" d="M 0.00195313,0.001953 V 0.0039061 L 35.509766,20.503906 71.009766,0.0078124 106.50977,20.503906 142,0.0136718 V 0.001953 Z" class="svg-elem-1"></path>
      <path id="path16" style="fill-opacity: 0.3; stroke-width: 2; stroke-miterlimit: 10;" d="m 35.503902,61.5 0.0039,0.002 v 41 L 0,123.00195 V 81.998047 Z M 142.01171,0 l 0.004,0.002 v 41 l -35.5079,20.499953 V 20.498047 Z m -71.000002,0 0.0039,0.002 v 41 L 35.507806,61.501953 V 20.498047 Z m 35.492192,61.5 0.004,0.002 v 41 L 71,123.00195 V 81.998047 Z" class="svg-elem-2"></path>
      <path id="path18" style="fill-opacity: 1; stroke-width: 2; stroke-miterlimit: 10;" d="m 106.49609,61.5 -0.004,0.002 v 41 L 142,123.00195 V 81.998047 Z M 71.0039,0 71,0.002 v 41 l 35.50781,20.499953 V 20.498047 Z m -71,0 L 0,0.002 v 41 L 35.507806,61.501953 V 20.498047 Z m 35.492194,61.5 -0.0039,0.002 v 41 L 71,123.00195 V 81.998047 Z" class="svg-elem-3"></path>
      <path id="path20" style="fill-opacity: 0.6; stroke-width: 2; stroke-miterlimit: 10;" d="m 70.998047,41.001953 -35.5,20.496094 L 0,41.003906 v 40.998047 l 0.00195313,0.002 35.49999987,-20.496094 35.5,20.496094 L 106.50195,61.507812 142,82.001953 V 41.003906 l -0.002,-0.002 -35.5,20.496094 z" class="svg-elem-4"></path>
      <path id="path26" style="fill-opacity: 0.6; stroke-width: 2; stroke-miterlimit: 10;" d="M 35.505859,102.50195 0.00195313,123 v 0.002 H 142 v -0.008 l -35.49414,-20.49219 -35.500001,20.49609 z" class="svg-elem-5"></path>
    </pattern>
    <inkscape:path-effect effect="fill_between_many" method="originald" linkedpaths="#path1,0,1" id="path-effect1" is_visible="true" lpeversion="0" join="true" close="true" autoreverse="true"></inkscape:path-effect>
  </defs>
  <g id="layer1" inkscape:groupmode="layer" inkscape:label="Layer 1" transform="translate(5.7910346,-85.300646)">
    <path d="m 76.468314,236.66459 c -6.972305,-1.01496 -10.429654,15.31453 -15.26502,18.29072 -5.897681,3.63004 -29.520099,1.823 -30.284889,1.05821 -0.80452,-0.80453 -0.79901,-1.91307 0.0194,-3.90343 1.11066,-2.70102 2.33641,-4.46241 4.96731,-7.13793 l 2.56842,-2.61199 0.56622,-3.35328 c 0.8364,-4.95335 1.94452,-9.82419 3.05021,-13.40745 0.53884,-1.74625 1.10311,-3.60939 1.25393,-4.1403 0.20681,-0.72799 0.15528,-1.85088 -0.20962,-4.56746 -0.62621,-4.66208 -0.44958,-9.35897 0.50763,-13.49837 0.36776,-1.59035 0.62748,-2.93271 0.57716,-2.98303 -0.0503,-0.0503 -1.20975,0.10361 -2.57651,0.34207 -2.88806,0.5039 -6.53937,0.38486 -9.2319,-0.30096 -2.30368,-0.58677 -6.66914,-2.67453 -9.19235,-4.3962 -2.83182,-1.93223 -6.75658,-5.93728 -8.76967,-8.94907 -1.67749,-2.50971 -1.67789,-2.51006 -3.56564,-3.20098 -4.09986,-1.50055 -6.52019,-3.04886 -9.77471,-6.253 -2.38849,-2.35151 -3.32921,-3.62147 -4.43844,-5.99185 -2.63819,-5.63768 -1.59516,-12.45572 2.28106,-14.91077 1.13415001,-0.71833 1.16149001,-0.76876 1.17093001,-2.1602 0.005,-0.78359 0.14647,-2.16724 0.31369,-3.07478 0.29271,-1.58858 0.27883,-1.6834 -0.37248,-2.54405 -1.48626001,-1.96397 -1.53121001,-4.26014 -0.13518,-6.9061 C 2.078095,137.98894 6.724915,135.44619 12.726215,135.0611 l 2.40827,-0.15453 0.46242,-1.54372 c 0.86505,-2.88787 3.56612,-5.04374 5.79529,-4.62555 1.71366,0.32149 3.08096,1.91947 3.08096,3.60077 0,1.06736 -0.35587,1.73571 -1.6289,3.05917 l -1.03794,1.07905 1.92873,0.96337 c 3.91617,1.95605 6.39161,4.64382 7.66042,8.31746 0.48746,1.41137 0.61832,2.35017 0.61832,4.43607 0,2.41827 -0.0634,2.7537 -0.73722,3.89997 -0.46271,0.78715 -0.98224,1.31564 -1.39524,1.4193 -0.36191,0.0908 -0.82811,0.408 -1.036,0.70481 -0.33684,0.4809 -0.31061,0.65765 0.24092,1.62341 1.28487,2.24991 2.00149,5.89303 2.00149,10.17511 v 2.30619 l 3.10886,2.05754 3.10885,2.05753 3.46674,-1.73604 c 4.64084,-2.32399 8.7484,-4.2331 9.96087,-4.6296 0.5457,-0.17846 0.99218,-0.38704 0.99218,-0.46351 0,-0.0765 -0.55459,-0.75185 -1.23242,-1.50084 -4.03837,-4.46225 -6.36627,-10.19288 -6.62577,-16.31075 -0.27221,-6.41761 1.8013,-13.94292 5.12857,-18.6129 0.50265,-0.70547 0.87595,-1.30958 0.82957,-1.34245 -0.0464,-0.0329 -0.50104,-0.33721 -1.01037,-0.67631 -0.50932,-0.33911 -1.5039,-1.16375 -2.21018,-1.83255 -3.81766,-3.61507 -6.02598,-8.48314 -7.09294,-15.63579 -0.70322,-4.71424 -0.58437,-7.2314 0.41254,-8.73784 1.00222,-1.51446 2.05705,-1.89207 5.71558,-2.0461 7.1637,-0.30161 14.20815,1.74182 19.502564,5.65722 1.05797,0.78241 2.08934,1.42255 2.29193,1.42255 0.20259,0 1.84085,-0.70715 3.64058,-1.57145 6.29787,-3.02449 10.36354,-3.98338 17.69202,-4.17268 4.44384,-0.11479 5.61289,-0.0561 8.4295,0.42347 1.79857,0.30621 4.446931,0.94984 5.885241,1.43028 l 2.61513,0.87353 0.99392,-1.03337 c 3.67218,-3.81797 10.48034,-6.589153 17.11958,-6.968346 l 2.95309,-0.168664 0.96166,0.844341 c 1.7437,1.530993 1.81932,2.605769 0.58812,8.358519 -1.22364,5.71742 -2.77245,10.0783 -4.38245,12.33934 -0.30861,0.4334 -0.51835,0.82915 -0.4661,0.87945 0.0523,0.0503 2.29767,0.22977 4.98981,0.39882 3.20589,0.20132 5.08655,0.43154 5.45055,0.66725 0.69838,0.45224 1.42892,1.96336 1.42762,2.95304 -0.001,0.92896 -0.90687,2.47356 -1.45033,2.47356 -0.31639,0 -0.40076,0.35801 -0.40076,1.70064 0,2.64836 -0.49343,5.61278 -1.38294,8.30846 l -0.81453,2.46847 0.83145,1.67065 c 1.22343,2.45825 1.70764,4.83755 1.56508,7.69048 -0.16113,3.22482 -1.02558,5.18432 -3.12545,7.08471 -1.49898,1.35657 -1.51872,1.39365 -1.82801,3.43434 -0.65977,4.35309 -2.25294,7.73579 -5.309,11.27236 -1.03865,1.20196 -1.84844,2.22479 -1.79951,2.27296 0.0489,0.0482 1.20902,0.8226 2.578,1.72098 3.55923,2.3357 8.07851,6.8116 10.87241,10.76803 0.36724,0.52005 0.52528,0.54477 2.11666,0.33104 0.94589,-0.12704 2.3895,-0.30154 3.20802,-0.38778 l 1.48822,-0.15681 0.11803,-2.03562 c 0.0871,-1.50259 0.30079,-2.39935 0.81597,-3.42468 0.38386,-0.76399 0.65785,-1.38906 0.60887,-1.38906 -0.049,0 -0.54812,0.1918 -1.10919,0.42623 -1.42428,0.5951 -3.88741,0.52799 -5.71476,-0.15571 -3.25391,-1.21744 -5.7795,-4.71227 -6.37062,-8.81545 -0.50932,-3.53532 0.46767,-5.95847 3.25893,-8.08287 1.14997,-0.87523 1.18843,-0.9521 1.37768,-2.75379 0.22497,-2.14177 1.06476,-4.15278 2.34136,-5.60674 1.31521,-1.49795 27.65259,-18.89672 29.71024,-19.62693 0.564,-0.20015 1.89091,-0.36391 2.94869,-0.36391 3.32252,0 6.26731,1.22232 8.98912,3.7312 1.88926,1.74146 1.77245,2.19027 -1.57294,6.04313 l -2.76488,3.1843 0.6653,1.50437 c 0.36592,0.82741 0.84414,1.85019 1.06271,2.27286 l 0.3974,0.76849 2.03291,-0.16736 c 1.1181,-0.0921 3.38587,-0.35255 5.03949,-0.57889 3.55449,-0.48651 4.09972,-0.34714 4.51623,1.15445 0.81577,2.94095 0.53912,7.00544 -0.63444,9.32136 -1.2077,2.38328 -3.31053,3.87016 -14.24593,10.07315 l -3.91797,2.22242 0.92117,0.80661 c 1.21006,1.0596 1.78245,2.27141 1.95104,4.13057 0.18427,2.03229 -0.0558,3.13504 -0.98301,4.51565 l -0.77483,1.15369 0.6186,0.66273 c 1.52058,1.62905 2.04972,3.91572 1.34726,5.8221 -0.2413,0.65485 -0.50311,1.39461 -0.5818,1.64392 -0.0787,0.24931 0.10779,0.9715 0.4144,1.60488 1.19143,2.46116 0.58148,3.67637 -3.05936,6.09516 -5.45218,3.62216 -9.54593,5.06722 -12.72348,4.49127 l -1.51329,-0.2743 -1.3258,1.12564 c -3.12573,2.65384 -8.82259,5.83375 -12.70288,7.09058 -5.07441,1.64361 -9.07333,1.66516 -12.86299,0.0693 -0.36635,-0.15428 -0.45357,0.13457 -0.60913,2.01746 -0.0999,1.20864 -0.35619,3.31155 -0.56962,4.67314 l -0.38805,2.47563 1.21568,1.62542 c 3.47489,4.64608 5.40092,11.11072 5.41101,18.16187 l 0.004,2.51354 2.0324,1.05834 c 2.94404,1.53306 5.48979,4.11989 6.94545,7.05754 1.3873,2.79968 1.62038,4.28815 0.82861,5.29141 -0.30701,0.38901 -0.88417,0.77469 -1.28258,0.85707 -1.26776,0.26214 -25.75955,2.11736 -31.74798,0.62313 -5.94248,-1.48277 -3.61315,-5.18944 -5.41273,-14.09525 -1.91168,-9.46056 -13.96445,-4.07092 -28.117866,-6.13122 z" id="path2" style="opacity: 1; mix-blend-mode: overlay; fill: url(&quot;#pattern127&quot;); fill-opacity: 1; stroke: rgb(0, 0, 0); stroke-opacity: 0.903614;" inkscape:original-d="M 0,0" inkscape:path-effect="#path-effect1" class="svg-elem-6"></path>
    <path d="m 76.468314,236.66459 c -6.972305,-1.01496 -10.429654,15.31453 -15.26502,18.29072 -5.897681,3.63004 -29.520099,1.823 -30.284889,1.05821 -0.80452,-0.80453 -0.79901,-1.91307 0.0194,-3.90343 1.11066,-2.70102 2.33641,-4.46241 4.96731,-7.13793 l 2.56842,-2.61199 0.56622,-3.35328 c 0.8364,-4.95335 1.94452,-9.82419 3.05021,-13.40745 0.53884,-1.74625 1.10311,-3.60939 1.25393,-4.1403 0.20681,-0.72799 0.15528,-1.85088 -0.20962,-4.56746 -0.62621,-4.66208 -0.44958,-9.35897 0.50763,-13.49837 0.36776,-1.59035 0.62748,-2.93271 0.57716,-2.98303 -0.0503,-0.0503 -1.20975,0.10361 -2.57651,0.34207 -2.88806,0.5039 -6.53937,0.38486 -9.2319,-0.30096 -2.30368,-0.58677 -6.66914,-2.67453 -9.19235,-4.3962 -2.83182,-1.93223 -6.75658,-5.93728 -8.76967,-8.94907 -1.67749,-2.50971 -1.67789,-2.51006 -3.56564,-3.20098 -4.09986,-1.50055 -6.52019,-3.04886 -9.77471,-6.253 -2.38849,-2.35151 -3.32921,-3.62147 -4.43844,-5.99185 -2.63819,-5.63768 -1.59516,-12.45572 2.28106,-14.91077 1.13415001,-0.71833 1.16149001,-0.76876 1.17093001,-2.1602 0.005,-0.78359 0.14647,-2.16724 0.31369,-3.07478 0.29271,-1.58858 0.27883,-1.6834 -0.37248,-2.54405 -1.48626001,-1.96397 -1.53121001,-4.26014 -0.13518,-6.9061 C 2.078095,137.98894 6.724915,135.44619 12.726215,135.0611 l 2.40827,-0.15453 0.46242,-1.54372 c 0.86505,-2.88787 3.56612,-5.04374 5.79529,-4.62555 1.71366,0.32149 3.08096,1.91947 3.08096,3.60077 0,1.06736 -0.35587,1.73571 -1.6289,3.05917 l -1.03794,1.07905 1.92873,0.96337 c 3.91617,1.95605 6.39161,4.64382 7.66042,8.31746 0.48746,1.41137 0.61832,2.35017 0.61832,4.43607 0,2.41827 -0.0634,2.7537 -0.73722,3.89997 -0.46271,0.78715 -0.98224,1.31564 -1.39524,1.4193 -0.36191,0.0908 -0.82811,0.408 -1.036,0.70481 -0.33684,0.4809 -0.31061,0.65765 0.24092,1.62341 1.28487,2.24991 2.00149,5.89303 2.00149,10.17511 v 2.30619 l 3.10886,2.05754 3.10885,2.05753 3.46674,-1.73604 c 4.64084,-2.32399 8.7484,-4.2331 9.96087,-4.6296 0.5457,-0.17846 0.99218,-0.38704 0.99218,-0.46351 0,-0.0765 -0.55459,-0.75185 -1.23242,-1.50084 -4.03837,-4.46225 -6.36627,-10.19288 -6.62577,-16.31075 -0.27221,-6.41761 1.8013,-13.94292 5.12857,-18.6129 0.50265,-0.70547 0.87595,-1.30958 0.82957,-1.34245 -0.0464,-0.0329 -0.50104,-0.33721 -1.01037,-0.67631 -0.50932,-0.33911 -1.5039,-1.16375 -2.21018,-1.83255 -3.81766,-3.61507 -6.02598,-8.48314 -7.09294,-15.63579 -0.70322,-4.71424 -0.58437,-7.2314 0.41254,-8.73784 1.00222,-1.51446 2.05705,-1.89207 5.71558,-2.0461 7.1637,-0.30161 14.20815,1.74182 19.502564,5.65722 1.05797,0.78241 2.08934,1.42255 2.29193,1.42255 0.20259,0 1.84085,-0.70715 3.64058,-1.57145 6.29787,-3.02449 10.36354,-3.98338 17.69202,-4.17268 4.44384,-0.11479 5.61289,-0.0561 8.4295,0.42347 1.79857,0.30621 4.446931,0.94984 5.885241,1.43028 l 2.61513,0.87353 0.99392,-1.03337 c 3.67218,-3.81797 10.48034,-6.589153 17.11958,-6.968346 l 2.95309,-0.168664 0.96166,0.844341 c 1.7437,1.530993 1.81932,2.605769 0.58812,8.358519 -1.22364,5.71742 -2.77245,10.0783 -4.38245,12.33934 -0.30861,0.4334 -0.51835,0.82915 -0.4661,0.87945 0.0523,0.0503 2.29767,0.22977 4.98981,0.39882 3.20589,0.20132 5.08655,0.43154 5.45055,0.66725 0.69838,0.45224 1.42892,1.96336 1.42762,2.95304 -0.001,0.92896 -0.90687,2.47356 -1.45033,2.47356 -0.31639,0 -0.40076,0.35801 -0.40076,1.70064 0,2.64836 -0.49343,5.61278 -1.38294,8.30846 l -0.81453,2.46847 0.83145,1.67065 c 1.22343,2.45825 1.70764,4.83755 1.56508,7.69048 -0.16113,3.22482 -1.02558,5.18432 -3.12545,7.08471 -1.49898,1.35657 -1.51872,1.39365 -1.82801,3.43434 -0.65977,4.35309 -2.25294,7.73579 -5.309,11.27236 -1.03865,1.20196 -1.84844,2.22479 -1.79951,2.27296 0.0489,0.0482 1.20902,0.8226 2.578,1.72098 3.55923,2.3357 8.07851,6.8116 10.87241,10.76803 0.36724,0.52005 0.52528,0.54477 2.11666,0.33104 0.94589,-0.12704 2.3895,-0.30154 3.20802,-0.38778 l 1.48822,-0.15681 0.11803,-2.03562 c 0.0871,-1.50259 0.30079,-2.39935 0.81597,-3.42468 0.38386,-0.76399 0.65785,-1.38906 0.60887,-1.38906 -0.049,0 -0.54812,0.1918 -1.10919,0.42623 -1.42428,0.5951 -3.88741,0.52799 -5.71476,-0.15571 -3.25391,-1.21744 -5.7795,-4.71227 -6.37062,-8.81545 -0.50932,-3.53532 0.46767,-5.95847 3.25893,-8.08287 1.14997,-0.87523 1.18843,-0.9521 1.37768,-2.75379 0.22497,-2.14177 1.06476,-4.15278 2.34136,-5.60674 1.31521,-1.49795 27.65259,-18.89672 29.71024,-19.62693 0.564,-0.20015 1.89091,-0.36391 2.94869,-0.36391 3.32252,0 6.26731,1.22232 8.98912,3.7312 1.88926,1.74146 1.77245,2.19027 -1.57294,6.04313 l -2.76488,3.1843 0.6653,1.50437 c 0.36592,0.82741 0.84414,1.85019 1.06271,2.27286 l 0.3974,0.76849 2.03291,-0.16736 c 1.1181,-0.0921 3.38587,-0.35255 5.03949,-0.57889 3.55449,-0.48651 4.09972,-0.34714 4.51623,1.15445 0.81577,2.94095 0.53912,7.00544 -0.63444,9.32136 -1.2077,2.38328 -3.31053,3.87016 -14.24593,10.07315 l -3.91797,2.22242 0.92117,0.80661 c 1.21006,1.0596 1.78245,2.27141 1.95104,4.13057 0.18427,2.03229 -0.0558,3.13504 -0.98301,4.51565 l -0.77483,1.15369 0.6186,0.66273 c 1.52058,1.62905 2.04972,3.91572 1.34726,5.8221 -0.2413,0.65485 -0.50311,1.39461 -0.5818,1.64392 -0.0787,0.24931 0.10779,0.9715 0.4144,1.60488 1.19143,2.46116 0.58148,3.67637 -3.05936,6.09516 -5.45218,3.62216 -9.54593,5.06722 -12.72348,4.49127 l -1.51329,-0.2743 -1.3258,1.12564 c -3.12573,2.65384 -8.82259,5.83375 -12.70288,7.09058 -5.07441,1.64361 -9.07333,1.66516 -12.86299,0.0693 -0.36635,-0.15428 -0.45357,0.13457 -0.60913,2.01746 -0.0999,1.20864 -0.35619,3.31155 -0.56962,4.67314 l -0.38805,2.47563 1.21568,1.62542 c 3.47489,4.64608 5.40092,11.11072 5.41101,18.16187 l 0.004,2.51354 2.0324,1.05834 c 2.94404,1.53306 5.48979,4.11989 6.94545,7.05754 1.3873,2.79968 1.62038,4.28815 0.82861,5.29141 -0.30701,0.38901 -0.88417,0.77469 -1.28258,0.85707 -1.26776,0.26214 -25.75955,2.11736 -31.74798,0.62313 -5.94248,-1.48277 -3.61315,-5.18944 -5.41273,-14.09525 -1.91168,-9.46056 -13.96445,-4.07092 -28.117866,-6.13122 z m -35.879029,16.2249 c 0.86521,-1.39994 3.08677,-3.34526 3.82029,-3.34526 1.21505,0 1.123,0.96926 -0.26619,2.8031 -0.34112,0.4503 -0.62021,0.93259 -0.62021,1.07177 0,0.3157 8.6772,0.18511 12.12792,-0.18252 1.35885,-0.14477 2.79261,-0.42971 3.18612,-0.63321 0.48634,-0.25149 1.66284,-1.94086 3.673484,-5.27483 3.14716,-5.21851 5.68772,-8.87227 8.85381,-12.73327 2.2765,-2.77617 1.97312,-2.70358 6.73997,-1.61258 3.97057,0.90875 7.37273,1.2157 11.98536,1.08136 6.38908,-0.18609 11.026621,-1.01359 16.355421,-2.91836 2.72939,-0.97561 3.22375,-1.07461 3.22375,-0.64555 0,0.66308 -3.44393,3.72292 -5.2402,4.65577 -0.0445,0.0231 0.7632,1.09393 1.79478,2.37964 1.03157,1.28572 2.18489,2.99148 2.56292,3.79057 0.65949,1.39405 0.68591,1.63007 0.65246,5.82769 -0.0246,3.08546 0.0646,4.56974 0.3026,5.03625 0.61267,1.20087 2.38412,1.39422 13.06829,1.42639 5.26294,0.0159 9.65284,-0.055 9.75534,-0.15742 0.10249,-0.10243 -0.18162,-0.65084 -0.63136,-1.21868 -0.88741,-1.12044 -1.42329,-2.2828 -1.16947,-2.53663 0.72765,-0.72764 3.32071,0.73699 4.58125,2.58763 0.63765,0.93613 0.68183,0.95346 2.43537,0.95524 2.14171,0.002 2.1785,-0.10646 0.76955,-2.27228 -1.98105,-3.04524 -4.73515,-5.08357 -7.84232,-5.80417 -1.00949,-0.23412 -1.92385,-0.4803 -2.03189,-0.54708 -0.10805,-0.0668 0.0594,-0.68347 0.37204,-1.37044 1.13804,-2.50036 0.52829,-9.90717 -1.20978,-14.6955 -0.69278,-1.9086 -2.07805,-4.41061 -3.63279,-6.56139 l -1.07495,-1.48705 0.42059,-2.83251 c 0.23133,-1.55789 0.4663,-4.34153 0.52216,-6.18588 0.19074,-6.29729 -0.59106,-10.76223 -3.33314,-19.03593 -1.91583,-5.78063 -2.08999,-6.9393 -1.04303,-6.9393 1.55278,0 4.69354,5.8248 6.09011,11.29462 0.69931,2.73895 1.60674,7.44129 1.60775,8.33143 10e-4,0.96218 1.57096,2.23134 3.43451,2.77663 1.70717,0.49952 5.54142,0.34948 8.00588,-0.31329 2.24491,-0.60372 5.4368,-2.0108 7.75756,-3.41977 2.04212,-1.2398 6.03548,-4.16184 6.32259,-4.6264 0.083,-0.13434 -0.0782,-0.64036 -0.35835,-1.12447 -1.09941,-1.90004 -2.14102,-7.10875 -2.14242,-10.71338 -1.2e-4,-0.31501 -0.65506,-1.43712 -1.45543,-2.49356 -0.80036,-1.05644 -1.45521,-2.0716 -1.45521,-2.2559 0,-0.66516 0.55611,-0.65528 1.36367,0.0242 3.16783,2.66556 6.04467,2.17114 6.04467,-1.03885 0,-3.4934 -3.8348,-5.97359 -6.87201,-4.44452 -1.30875,0.65888 -2.58159,2.45164 -2.80677,3.95326 -0.21799,1.45364 0.2359,4.75971 0.93072,6.77923 0.52744,1.53305 0.36279,2.29783 -0.49472,2.29783 -0.54866,0 -2.25251,-1.76782 -2.5219,-2.61659 -0.15745,-0.49611 -0.37451,-0.55739 -1.94534,-0.54918 -2.38464,0.0124 -5.61726,0.61537 -7.07005,1.31866 -0.72875,0.35278 -1.49335,1.01606 -1.9702,1.70914 -1.28004,1.86048 -2.12433,1.88292 -2.11475,0.0562 0.006,-1.20822 0.78353,-3.16857 1.60179,-4.04025 0.51565,-0.54931 0.51395,-0.55314 -1.10965,-2.51354 -2.45992,-2.97021 -3.86645,-4.36562 -6.12702,-6.07859 -2.50989,-1.90191 -4.01861,-2.78723 -5.15271,-3.02364 l -0.85989,-0.17926 v 1.15606 c 0,1.74478 -0.7081,4.12699 -1.74661,5.87598 -0.51143,0.86133 -1.04295,2.1623 -1.18116,2.89106 -0.63739,3.36099 -2.70359,5.96823 -6.09521,7.69126 -1.05338,0.53514 -2.31495,1.32394 -2.80348,1.75288 -0.48854,0.42894 -1.36119,1.02117 -1.93923,1.31606 -0.57804,0.29489 -1.05098,0.57874 -1.05098,0.63077 0,0.052 0.1786,0.52203 0.39688,1.04446 0.63233,1.51337 0.40958,2.91562 -0.70695,4.45041 -0.26938,0.37029 -0.15957,0.61923 0.68595,1.55512 1.51834,1.68062 2.12335,3.22277 2.12335,5.41236 0,3.12662 -1.77588,5.94671 -4.68204,7.43506 -0.87606,0.44867 -1.25677,0.80658 -1.25677,1.1815 0,1.75442 -1.917781,3.1574 -4.315961,3.1574 -1.94977,0 -3.0886,-0.77156 -3.54998,-2.40512 -0.31272,-1.10722 -0.45449,-1.25073 -1.77711,-1.79892 -2.95261,-1.22379 -5.29788,-4.30216 -5.12205,-6.72313 0.0741,-1.01994 0.18133,-1.16579 1.30361,-1.77283 l 1.22288,-0.66146 -0.89705,-1.16676 c -1.24538,-1.61982 -1.7811,-3.61444 -1.59967,-5.95599 0.0798,-1.03019 0.22318,-2.12586 0.31856,-2.43481 0.15048,-0.48743 0.0393,-0.58643 -0.84084,-0.74851 -1.6114,-0.29676 -3.2496,-1.12336 -4.48719,-2.26413 -0.96915,-0.89329 -1.32224,-1.05581 -2.29398,-1.05581 -2.39893,0 -4.89286,-1.06946 -6.99489,-2.9996 -0.61608,-0.56569 -1.86327,-1.37998 -2.77154,-1.80952 -3.00324,-1.42031 -5.28437,-3.85614 -6.03462,-6.4439 -0.23561,-0.81264 -0.56059,-1.21123 -1.365034,-1.67421 -3.14776,-1.81162 -5.50972,-5.53807 -5.50972,-8.69264 0,-0.50315 -0.15554,-0.94601 -0.35978,-1.02438 -0.67803,-0.26019 -10.13207,4.03662 -15.65161,7.11356 l -2.12076,1.18224 -1.98028,-1.44001 c -3.6128,-2.62714 -6.12065,-4.00931 -7.02241,-3.87031 -1.33077,0.20512 -1.53121,-0.29954 -1.19801,-3.01634 0.33938,-2.76719 0.37016,-6.94656 0.0548,-7.44405 -0.15822,-0.24961 -0.55706,0.25598 -1.35668,1.71979 -2.26271,4.14217 -6.70109,7.49593 -11.09482,8.38353 -1.16524,0.2354 -1.79224,0.50506 -1.98437,0.85343 -0.6561,1.18961 -1.55981,1.20805 -2.26816,0.0463 -0.4427,-0.72608 -0.52444,-1.3362 -0.52528,-3.92073 -0.002,-5.15418 -0.96653,-7.05523 -2.98155,-5.87449 -2.04839,1.2003 -3.36944,4.0819 -3.36944,7.34972 0,2.47329 0.43317,3.57342 2.06272,5.23876 2.36237,2.41425 6.15575,4.08917 9.82694,4.33895 1.24605,0.0848 2.53344,0.25306 2.86086,0.37395 0.80507,0.29725 0.77337,1.29631 -0.0661,2.08499 -0.3638,0.34177 -0.66146,0.74126 -0.66146,0.88775 0,0.50684 2.94283,4.10581 4.75543,5.81573 3.37536,3.18414 7.05468,5.26729 11.11289,6.29189 1.87323,0.47294 2.74417,0.54401 5.29167,0.43178 4.52441,-0.19932 6.74974,-0.83373 12.49149,-3.56115 1.73132,-0.82241 3.27414,-1.39895 3.50573,-1.31008 0.6436,0.24697 0.48908,1.31739 -0.35379,2.45073 -0.73675,0.99065 -1.80867,1.82955 -4.64593,3.63596 -1.24827,0.79475 -1.34697,0.94524 -2.02292,3.08447 -1.5577,4.92973 -1.98682,11.14009 -1.13847,16.47616 0.2316,1.45677 0.36497,3.07832 0.29638,3.60345 -0.0686,0.52512 -0.71822,2.85977 -1.44363,5.1881 -1.9024,6.10612 -3.50718,13.7491 -3.50718,16.70341 0,0.7813 -0.0983,1.42055 -0.2184,1.42055 -0.59337,0 -4.31619,3.59919 -5.41164,5.23192 -1.0359,1.54398 -1.7783,2.94873 -1.7783,3.36486 0,0.21839 1.05796,0.33943 3.21957,0.36836 l 2.29352,0.0307 z m 56.374264,-35.88004 c 0.24824,-0.15697 0.40746,-0.72899 0.43527,-1.5638 0.0507,-1.52094 0.21604,-1.88476 0.85677,-1.88476 1.09651,0 3.275941,-1.40641 4.035551,-2.60418 1.90832,-3.00911 0.11321,-6.3515 -4.096451,-7.6274 -0.85385,-0.25878 -1.58923,-0.59263 -1.6342,-0.74186 -0.045,-0.14924 -0.13214,-1.19408 -0.19375,-2.32187 -0.0976,-1.78632 -0.0549,-2.05052 0.3313,-2.05052 0.24382,0 0.72795,0.30299 1.07584,0.6733 0.54151,0.57641 0.8242,0.66208 1.96435,0.59532 1.200681,-0.0703 1.338871,-0.14313 1.403441,-0.73945 0.047,-0.4339 -0.27438,-1.11658 -0.9341,-1.98438 -0.872501,-1.14767 -1.203091,-1.37315 -2.495651,-1.70216 -1.66158,-0.42294 -1.80124,-0.67234 -1.80124,-3.21639 0,-1.00975 -0.1119,-1.34042 -0.52917,-1.56374 -0.59473,-0.31829 -1.5717,0.0488 -1.60917,0.60462 -0.0297,0.44064 0.0448,3.11091 0.10499,3.76101 0.0383,0.4138 -0.091,0.51362 -0.59295,0.45788 -2.48897,-0.2764 -4.77042,2.16189 -4.77042,5.09837 0,2.96268 1.99974,5.22521 5.34619,6.04873 0.71835,0.17678 0.72761,0.20604 0.72761,2.29999 0,2.11164 -0.003,2.11963 -0.59531,1.82212 -0.32743,-0.16435 -0.85494,-0.60661 -1.17226,-0.9828 l -0.57694,-0.68399 -1.60587,0.48622 c -1.89327,0.57323 -2.02127,0.96924 -0.77285,2.39112 1.0271,1.16979 1.77839,1.5662 3.73104,1.96863 l 1.52136,0.31354 v 1.38353 c 0,1.81387 0.70367,2.48565 1.84662,1.76292 z m 0.17371,-7.58652 c -0.30019,-2.19013 -0.23184,-2.70829 0.33761,-2.55938 1.60471,0.41964 2.13005,2.28175 0.91367,3.23856 -0.38343,0.3016 -0.78397,0.54837 -0.89008,0.54837 -0.10612,0 -0.26866,-0.5524 -0.3612,-1.22755 z m -4.19007,-8.23131 c -1.10497,-1.18018 -1.16231,-1.80188 -0.25031,-2.71389 1.07038,-1.07038 1.36118,-0.99949 1.36463,0.33264 0.002,0.61847 0.0767,1.57097 0.1669,2.11667 0.20364,1.23199 -0.28164,1.3322 -1.28122,0.26458 z m 67.635291,-2.44092 c 3.00071,-1.03239 8.18971,-4.03507 8.53697,-4.94001 0.32987,-0.85964 -0.40169,-1.01606 -1.705,-0.36456 -0.6913,0.34557 -2.16142,1.00049 -3.26693,1.45538 -2.19224,0.90203 -5.65922,2.96158 -6.4426,3.82721 -0.48868,0.53998 -0.48496,0.54467 0.4327,0.54467 0.5091,0 1.60928,-0.23521 2.44486,-0.52269 z m -73.998371,-5.31933 c -0.25466,-0.14833 -0.46302,-0.39851 -0.46302,-0.55596 0,-0.27566 0.94287,-0.20514 2.68609,0.20091 0.82497,0.19216 1.81183,-0.61905 1.81183,-1.48934 0,-1.17365 -2.44678,-1.55621 -5.72855,-0.89568 -0.70047,0.14099 -0.86281,0.0763 -1.01553,-0.40493 -0.51166,-1.61209 -2.86886,-3.32706 -4.96289,-3.61072 -0.9757,-0.13217 -1.21061,-0.0612 -1.76675,0.53411 -0.84598,0.90548 -1.02873,0.86996 -1.51527,-0.29449 -0.57537,-1.37705 -2.65001,-3.72577 -3.81679,-4.32101 -0.96791,-0.49379 -0.98286,-0.49353 -1.11703,0.0195 -0.18395,0.70345 -0.50714,0.65464 -1.37432,-0.20758 -1.08025,-1.07407 -1.42287,-1.68286 -1.60511,-2.852 -0.21118,-1.35481 -0.94232,-2.53013 -2.29332,-3.68654 -0.76629,-0.65591 -1.24844,-0.88321 -1.65631,-0.78084 -0.43538,0.10927 -0.74259,-0.0749 -1.26276,-0.75683 -0.71646,-0.93932 -3.466274,-2.56598 -3.790174,-2.24208 -0.36265,0.36265 0.78861,2.71377 1.92233,3.92581 0.63237,0.67605 1.845764,1.60015 2.696414,2.05354 1.50585,0.80261 1.55442,0.86307 1.84137,2.29189 0.1621,0.80715 0.64482,1.97639 1.07272,2.59832 1.2687,1.84399 3.68019,3.25694 5.04648,2.95685 0.61221,-0.13446 0.7568,-0.0162 1.2692,1.03852 0.72271,1.48756 2.049,2.38872 4.35205,2.95705 1.72789,0.4264 3.29695,0.3374 2.98382,-0.16926 -0.0873,-0.14125 -0.0884,-0.37069 -0.002,-0.50986 0.30069,-0.48653 0.96302,0.0649 1.60896,1.33962 0.72961,1.43982 1.41482,1.97737 3.39141,2.66053 1.54488,0.53396 2.44333,0.64068 1.6875,0.20044 z m 17.566361,-1.45804 c 0.53006,-0.33449 1.22278,-0.97194 1.53937,-1.41655 0.33642,-0.47247 0.81551,-0.8108 1.15291,-0.8142 1.95524,-0.0197 4.64907,-2.47378 5.34564,-4.86992 0.23614,-0.81227 0.38271,-1.68463 0.32572,-1.93858 -0.057,-0.25395 0.29305,-1.01546 0.77787,-1.69225 1.09759,-1.53221 1.82381,-3.1811 2.06978,-4.69949 l 0.18913,-1.16751 -1.28729,0.74908 c -0.70802,0.41199 -1.48308,0.86885 -1.72236,1.01525 -0.25113,0.15365 -0.50335,0.77799 -0.59658,1.47677 -0.15692,1.17605 -0.21078,1.23606 -1.88741,2.10318 -0.94924,0.49092 -2.13834,1.37444 -2.64245,1.96338 -0.86023,1.00498 -1.97912,3.43469 -1.97912,4.2977 0,0.24802 -0.26775,0.38696 -0.74573,0.38696 -1.59594,0 -3.53518,0.81703 -4.843191,2.04053 -1.30882,1.22424 -1.75053,2.45738 -0.88024,2.45738 0.53788,0 1.962141,-0.72672 2.645421,-1.34979 0.58661,-0.53493 2.23703,-0.97912 2.23497,-0.60151 -7.9e-4,0.12733 -0.41741,0.68462 -0.92604,1.23842 -1.65335,1.80019 -1.00645,2.23221 1.2296,0.82115 z m 3.40187,-5.27614 c 0,-1.49103 1.48255,-3.56338 2.54923,-3.56338 0.49426,0 0.45921,1.1552 -0.0666,2.19595 -0.97253,1.92484 -2.4826,2.75659 -2.4826,1.36743 z m 59.71045,3.0285 c 2.01746,-0.97664 2.89173,-2.8051 1.92741,-4.03102 -1.33601,-1.69847 -4.33415,-2.25567 -7.33771,-1.36371 -4.08671,1.21362 -3.97256,4.42945 0.20231,5.69939 1.38848,0.42236 4.02474,0.26814 5.20799,-0.30466 z m -73.908121,-2.25111 c 1.04966,-0.36917 1.50269,-0.39898 2.51354,-0.16543 1.13542,0.26233 1.28548,0.23575 1.89455,-0.33555 0.93329,-0.87542 3.092551,-1.96827 4.256751,-2.15443 0.871,-0.13928 1.03784,-0.29376 1.43204,-1.32597 0.24541,-0.64258 0.92345,-1.7721 1.50677,-2.51006 0.7518,-0.9511 0.91791,-1.29781 0.57053,-1.19089 -2.52591,0.77748 -4.39162,1.02269 -8.692131,1.14237 -4.10057,0.11412 -5.12336,0.058 -7.35882,-0.40391 -2.80992,-0.58059 -6.40476,-2.1053 -7.35929,-3.12135 l -0.58768,-0.62555 h 0.8523 c 0.46876,0 2.24568,0.26636 3.94872,0.59191 4.11991,0.78757 12.43846,0.84664 15.928731,0.11312 9.67589,-2.0335 17.59197,-7.26712 20.94159,-13.84527 1.05969,-2.08108 2.09091,-5.45503 1.76645,-5.7795 -0.0667,-0.0667 -0.53005,-2.6e-4 -1.02973,0.14753 -3.01387,0.89148 -8.89985,1.27407 -12.15331,0.78997 l -1.45521,-0.21653 -1.27944,1.22803 c -0.70369,0.67542 -2.12103,2.45842 -3.14963,3.96223 -2.78421,4.07047 -5.19394,5.66116 -9.130291,6.027 -5.42325,0.50404 -10.96322,-2.83115 -13.53321,-8.14729 -1.03698,-2.14505 -2.13831,-5.96361 -2.14204,-7.42693 -0.002,-0.90018 -0.26932,-0.91365 -1.27849,-0.0645 -1.30967,1.10201 -2.36515,0.2237 -1.87303,-1.55863 0.38906,-1.40906 1.72587,-2.78338 3.54414,-3.64358 2.34042,-1.10721 3.83886,-0.94953 3.83886,0.40399 0,0.28686 -0.19025,0.73179 -0.42279,0.98874 -0.54266,0.59963 -0.39113,0.81694 1.43139,2.05269 3.21579,2.18045 6.4537,3.43699 10.97303,4.25833 3.410491,0.61981 7.845821,1.01339 9.053961,0.80342 l 0.79254,-0.13775 -0.9765,-0.60413 c -1.55956,-0.96485 -3.55946,-3.34049 -4.1573,-4.93835 -1.22357,-3.27028 -0.90571,-7.7489 0.79578,-11.21267 0.87483,-1.78091 3.48938,-4.76303 5.23895,-5.97549 l 1.04418,-0.72361 -0.36194,-1.02585 c -0.19907,-0.56422 -0.50718,-1.76405 -0.68468,-2.66631 -0.36598,-1.86024 -0.95606,-2.61309 -2.04811,-2.61309 -1.1456,0 -1.60992,0.7606 -2.18608,3.58096 -0.66521,3.25624 -1.47844,5.26075 -2.99852,7.39094 -2.956791,4.14358 -6.154061,5.62131 -12.715781,5.87707 -5.52634,0.2154 -8.29638,-0.50237 -10.78245,-2.79395 -1.91615,-1.76624 -3.92228,-6.8658 -4.64441,-11.80606 -0.18659,-1.27646 -0.22108,-1.31978 -0.98222,-1.2337 -0.76179,0.0862 -4.88897,1.12989 -14.243794,3.60212 -2.45251,0.64813 -4.75192,1.37029 -5.10981,1.60479 -2.34773,1.53829 -4.85086,9.15697 -4.85086,14.76435 0,7.91041 3.79126,15.02298 10.32208,19.36466 2.37484,1.57878 6.663044,3.58998 9.605664,4.50512 3.08929,0.96075 3.6021,1.46386 2.55716,2.5088 l -0.53385,0.53385 0.83618,1.79476 c 0.74957,1.60887 0.94574,1.82896 1.89403,2.12492 1.45601,0.45442 3.14284,1.66444 4.31578,3.09584 0.56558,0.69023 1.13523,1.14388 1.33845,1.0659 0.59374,-0.22784 3.30638,0.3868 4.57887,1.0375 0.66069,0.33786 1.73012,1.07041 2.3765,1.6279 1.0917,0.94157 1.2986,1.01571 2.91042,1.04299 0.95787,0.0162 2.15001,0.21772 2.66122,0.44982 0.99444,0.45151 1.06262,0.44617 3.00024,-0.23531 z m 73.046611,-7.01302 c 1.56251,-0.43382 2.53439,-1.53864 2.53439,-2.88104 0,-2.61183 -2.04534,-3.98243 -4.51031,-3.02238 -1.6913,0.65873 -3.57293,2.09377 -3.95509,3.01638 -0.27889,0.67331 -0.26066,0.89758 0.1202,1.47886 0.92813,1.4165 3.51924,2.04442 5.81081,1.40818 z m -17.04054,-7.93404 c 1.52564,-0.88575 3.72639,-2.11285 4.89056,-2.72688 1.72627,-0.91051 3.07766,-1.68683 3.80046,-2.18322 0.053,-0.0364 -0.62513,-0.73404 -1.50687,-1.55037 -1.25396,-1.16095 -3.10642,-3.58323 -4.73606,-6.1929 -0.0373,-0.0597 -0.27692,0.0724 -0.53247,0.29358 -1.00746,0.87207 -6.5258,4.20356 -7.05073,4.2566 -0.43164,0.0436 -0.57693,-0.11169 -0.64293,-0.68725 -0.0469,-0.40898 0.0493,-0.90578 0.21385,-1.10401 0.16451,-0.19822 1.78046,-1.34062 3.59099,-2.53867 1.81054,-1.19805 3.29188,-2.27702 3.29188,-2.39772 0,-0.1207 -0.29261,-1.22921 -0.65025,-2.46335 -0.35764,-1.23414 -0.79293,-3.26374 -0.9673,-4.51021 -0.17437,-1.24648 -0.39373,-2.23282 -0.48746,-2.19188 -0.0937,0.0409 -1.69719,1.02695 -3.56326,2.19111 -3.86367,2.4104 -5.88878,4.09851 -6.4083,5.34189 -0.4724,1.13062 -0.45452,4.80256 0.0335,6.87197 0.51156,2.16937 2.22665,5.83135 3.69449,7.88835 1.07708,1.50939 3.23665,3.31342 3.96643,3.31342 0.15928,0 1.53785,-0.72471 3.06349,-1.61046 z M 3.240355,163.65744 c 0.67287,-1.10963 1.12448,-2.17903 1.12448,-2.6627 0,-0.89128 -0.80036,-2.08506 -1.55945,-2.32599 -0.66485,-0.21101 -1.86169999,0.27785 -2.74624999,1.12173 -1.82954001,1.74543 -2.01489001,6.67797 -0.38971,10.37107 l 0.52732,1.1983 0.95956999,-2.924 c 0.52776,-1.60821 1.46558,-3.75849 2.08404,-4.77841 z m 13.96234,5.17539 c 2.05478,-0.9987 5.12554,-4.22948 6.27415,-6.6011 1.02869,-2.124 1.78368,-4.69282 1.843,-6.27076 0.0316,-0.84046 -0.12143,-1.10833 -1.13268,-1.98274 -2.19101,-1.89453 -6.66103,-3.77288 -10.88567,-4.57428 -2.48881,-0.47212 -6.7726,-0.49422 -8.2752,-0.0427 -0.96063,0.28867 -1.08664,0.43199 -1.36493,1.5525 -0.16863,0.67896 -0.3771,1.93656 -0.46327,2.79469 l -0.15666,1.56021 1.00182,0.30016 c 1.6987,0.50894 3.01432,2.07387 3.47035,4.128 0.13291,0.59866 0.34297,0.79534 0.93396,0.87448 1.66202,0.22258 3.1837,1.53699 4.02681,3.47831 0.23542,0.54207 0.47634,2.06985 0.55322,3.50821 l 0.13618,2.54795 1.36079,-0.31632 c 0.74842,-0.17398 1.95358,-0.60445 2.67813,-0.95661 z m 0.12673,-3.77432 c 0,-0.046 0.60258,-0.71875 1.33907,-1.49501 0.73649,-0.77626 1.77331,-2.1664 2.30406,-3.08919 0.99917,-1.73724 1.62257,-1.93455 1.08229,-0.34254 -0.73251,2.15845 -3.1729,5.01038 -4.28738,5.01038 -0.24092,0 -0.43804,-0.0376 -0.43804,-0.0836 z M 170.58351,163.297 c 0.97907,-0.4615 1.9018,-0.7639 2.05052,-0.67199 0.14872,0.0919 0.27039,0.0579 0.27039,-0.0756 0,-0.13351 -0.6846,-0.6965 -1.52135,-1.2511 -3.87914,-2.57112 -7.9922,-8.38778 -9.62997,-13.61864 -0.4824,-1.5407 -0.62146,-2.59131 -0.62197,-4.69894 -5.3e-4,-1.97083 -0.0859,-2.68196 -0.31169,-2.59555 -0.17107,0.0655 -2.4198,1.46454 -4.99719,3.10908 l -4.68617,2.99007 0.15822,2.64819 c 0.42445,7.10427 4.15556,13.83433 9.77373,17.62953 l 1.02712,0.69384 3.35412,-1.65988 c 1.84476,-0.91293 4.15517,-2.03748 5.13424,-2.49898 z m -73.486301,2.9101 c 0.19694,-0.31866 -2.97185,-3.52585 -4.01832,-4.067 -1.836,-0.94943 -5.71391,-1.50503 -6.31428,-0.90466 -0.23937,0.23937 2.25548,2.78588 3.53172,3.60484 1.99098,1.27761 6.31849,2.14734 6.80088,1.36682 z m 84.198701,-5.86944 c 1.55336,-0.39114 2.96545,-1.78463 3.58222,-3.53502 0.47865,-1.35844 0.64188,-4.74708 0.2406,-4.99508 -0.12161,-0.0752 -0.56767,-0.044 -0.99124,0.0693 -0.69012,0.18456 -0.79125,0.3526 -0.97323,1.61717 -0.2683,1.86429 -1.02301,3.02241 -2.40585,3.69183 -1.55834,0.75438 -2.90712,0.6926 -4.83973,-0.22169 -5.08458,-2.40542 -9.20746,-9.63689 -8.33102,-14.61249 0.34345,-1.94981 0.96609,-3.07496 2.13905,-3.86542 1.07587,-0.72502 3.03975,-0.79753 4.67601,-0.17264 0.75183,0.28713 1.25263,0.34326 1.55464,0.17424 0.3735,-0.20902 0.20907,-0.40628 -1.01704,-1.22012 -3.25897,-2.16319 -6.47792,-2.23834 -8.42254,-0.19665 -2.33662,2.45325 -2.43331,7.64235 -0.2306,12.37533 2.36605,5.08394 7.16593,9.65935 11.33886,10.80857 1.60539,0.44212 2.19934,0.45546 3.67987,0.0827 z m -59.42187,-5.35046 c 4.16364,-1.05619 6.50827,-2.50184 7.71399,-4.7563 0.49838,-0.93187 0.58619,-1.51217 0.58619,-3.87417 0,-2.57689 -0.0614,-2.90765 -0.84705,-4.56632 -2.03951,-4.30556 -6.06592,-6.81076 -10.94639,-6.81076 -2.62753,0 -4.37254,0.40881 -6.76643,1.58523 -4.11852,2.02394 -6.70784,6.05676 -6.70784,10.44734 0,4.27454 2.18568,7.00987 6.56508,8.21605 0.68207,0.18786 2.74291,0.3522 4.57964,0.36522 2.70139,0.0191 3.81402,-0.0967 5.82281,-0.60629 z m -9.75596,-5.72768 c -0.85131,-0.34226 -1.65318,-1.80497 -1.65433,-3.01769 -0.003,-2.87482 2.74965,-5.07448 4.66814,-3.73072 0.70693,0.49516 1.41797,1.98711 1.41047,2.95956 -0.009,1.21339 -0.93923,2.94148 -1.89703,3.52544 -0.94086,0.57362 -1.58791,0.64106 -2.52725,0.26341 z m 9.49199,-0.40055 c -2.19526,-1.8472 -0.71304,-6.74633 2.03606,-6.72969 0.53451,0.003 1.22687,0.2116 1.53858,0.46302 0.75177,0.60637 1.41903,1.97292 1.41182,2.89139 -0.009,1.20178 -0.94335,2.93097 -1.89703,3.51242 -1.17403,0.71578 -2.126,0.67353 -3.08943,-0.13714 z m -62.999615,-21.5204 c 1.08809,-0.41907 4.716784,-1.89656 8.063764,-3.28332 3.34698,-1.38675 6.73993,-2.71308 7.5399,-2.94739 2.29251,-0.67149 8.7468,-1.02916 15.47885,-0.85779 5.87371,0.14952 8.43314,0.42948 12.804711,1.4006 2.54509,0.56538 4.51966,0.3961 10.08175,-0.86434 2.40109,-0.54412 4.40605,-1.01685 4.45547,-1.05051 0.19549,-0.13316 -2.15723,-3.33679 -3.59414,-4.89404 -9.2858,-10.06347 -27.508791,-12.34849 -41.678211,-5.22612 l -2.05541,1.03317 0.93093,1.75425 c 1.01816,1.9186 1.16869,3.08992 0.49306,3.83649 -0.86747,0.95854 -1.50892,0.61665 -3.48425,-1.85708 -2.06293,-2.58343 -2.86686,-3.35158 -5.39796,-5.15773 -4.815294,-3.43612 -11.702694,-5.38216 -17.029544,-4.8117 -2.56589,0.27478 -2.86727,0.66469 -2.63733,3.4121 0.40679,4.86054 1.94106,10.49386 3.62261,13.30103 1.74214,2.90831 4.37415,5.03349 7.9202,6.39504 1.88756,0.72475 2.15814,0.71373 4.4856,-0.18266 z m 1.05258,-7.88309 c -2.18204,-2.80925 -5.17074,-5.59472 -7.49373,-6.98416 -1.93798,-1.15915 -1.948,-1.56873 -0.0384,-1.56873 2.55737,0 5.8963,2.11768 8.56041,5.42937 2.046954,2.5445 2.842194,4.18098 2.450004,5.04174 -0.5733,1.25825 -1.33904,0.83596 -3.478304,-1.91822 z m 62.439475,-4.84793 c 0.40342,-0.8008 1.03358,-2.40851 1.40035,-3.57268 0.88511,-2.80944 2.09017,-8.71996 1.98927,-9.7569 l -0.0804,-0.82643 -1.82504,0.0608 c -4.23963,0.14129 -11.06979,3.00297 -13.59377,5.69548 l -0.60215,0.64234 1.52819,0.95522 c 0.8405,0.52537 2.35233,1.67466 3.35961,2.55398 1.00728,0.87931 1.86273,1.56745 1.90098,1.52919 0.0383,-0.0383 0.60847,-1.14608 1.26714,-2.46182 1.23386,-2.46476 2.03396,-3.46779 2.52441,-3.16468 0.66972,0.41391 0.18356,2.70012 -1.21876,5.73128 l -0.93305,2.0168 1.27587,1.64295 1.27587,1.64295 0.499,-0.61624 c 0.27445,-0.33894 0.82908,-1.27145 1.23249,-2.07226 z m 69.98421,36.19554 c -0.72327,-0.41014 -0.91725,-0.74858 -0.922,-1.60862 -0.005,-0.95538 0.49334,-1.12969 3.8374,-1.34153 4.68289,-0.29664 9.94525,-1.40506 14.28251,-3.00836 2.56006,-0.94634 7.23328,-3.30632 9.39947,-4.74674 l 1.806,-1.20091 -2.53231,-2.88467 c -1.39276,-1.58657 -2.59904,-2.88468 -2.68061,-2.88468 -0.0816,0 -1.46326,0.88317 -3.07043,1.9626 -4.26114,2.86194 -9.44496,5.3737 -14.03462,6.80033 -2.56789,0.79819 -3.57187,0.58973 -3.57187,-0.74163 0,-0.52302 0.71926,-0.95562 5.35781,-3.22238 5.88217,-2.87449 10.93206,-6.06916 15.0151,-9.49887 3.58582,-3.01203 11.20211,-10.95042 10.81915,-11.27669 -0.0569,-0.0485 -1.29415,-0.83916 -2.74935,-1.757 -1.45521,-0.91784 -4.22027,-2.7206 -6.14458,-4.00612 -1.92431,-1.28553 -3.60063,-2.33732 -3.72517,-2.33732 -0.12454,0 -2.36011,2.33831 -4.96793,5.19624 -5.58577,6.12149 -12.10262,12.47571 -13.03501,12.70972 -0.9264,0.23252 -1.75476,-0.76404 -1.32373,-1.59251 0.57543,-1.10602 2.23518,-3.23872 4.65631,-5.98316 l 2.4474,-2.7742 v -3.71885 c 0,-4.48952 -0.328,-7.37322 -1.21891,-10.71641 -0.83836,-3.145974 -3.08242,-7.760049 -4.9542,-10.186457 -1.41659,-1.836344 -1.43876,-1.851577 -2.60914,-1.792522 -1.70923,0.08625 -15.60513,2.658438 -15.88754,2.940855 -0.14138,0.141373 0.1565,0.855532 0.73224,1.755566 1.61294,2.521427 3.52483,6.564388 4.46902,9.450358 2.1851,6.67885 2.26338,12.66094 0.26928,20.57773 -0.95669,3.79821 -1.51936,4.90343 -2.4963,4.90343 -1.13744,0 -1.20458,-0.62728 -0.44304,-4.13863 0.95842,-4.41908 1.22506,-6.49593 1.23126,-9.59005 l 0.005,-2.61618 -1.453,-2.01804 c -0.79915,-1.10992 -2.37673,-2.92985 -3.50573,-4.04428 -2.02058,-1.99451 -5.66414,-4.71261 -6.31716,-4.71261 -0.31381,0 -9.32928,4.11282 -9.59254,4.37607 -0.0672,0.0672 1.31412,1.52114 3.06968,3.2309 3.73295,3.63556 6.84542,7.7257 8.89613,11.69053 2.33211,4.50889 2.85601,7.06418 1.67568,8.17304 -1.17247,1.10147 -2.02908,0.52627 -2.72254,-1.82812 -1.57335,-5.34177 -6.58456,-12.42216 -12.18317,-17.21372 -4.6414,-3.97232 -4.87567,-4.30337 -3.86266,-5.45845 0.25466,-0.29038 2.18943,-1.30499 4.29948,-2.2547 2.11005,-0.94971 5.17262,-2.33267 6.8057,-3.07323 1.63308,-0.740569 3.34391,-1.346489 3.80185,-1.346489 1.26097,0 4.85038,2.254449 7.31242,4.592819 0.61542,0.5845 1.18224,0.99942 1.2596,0.92206 0.40689,-0.40689 -2.03331,-5.428231 -4.35958,-8.97093 -1.82425,-2.778185 -2.00633,-3.729197 -0.92167,-4.813862 0.72514,-0.725137 2.5384,-1.129424 12.8246,-2.859383 2.69213,-0.452771 5.60916,-0.989644 6.48229,-1.193051 2.60913,-0.607834 3.11368,-0.523799 4.22222,0.70322 0.53708,0.59448 1.6924,2.171117 2.56738,3.503638 3.81954,5.816847 5.70187,11.684358 6.19129,19.299258 l 0.16614,2.58481 1.7475,-1.92335 c 3.25518,-3.58275 6.0397,-6.28898 6.47089,-6.28898 0.23613,0 1.53817,0.76694 2.89341,1.70431 1.35525,0.93737 4.93768,3.38699 7.96096,5.4436 3.02328,2.05661 5.67785,4.0155 5.89905,4.35309 0.25313,0.38632 0.33793,0.8698 0.22881,1.30456 -0.21853,0.8707 -3.10276,4.18073 -8.11616,9.31435 l -3.90237,3.99595 1.6345,1.95718 c 0.89898,1.07644 2.38657,2.82418 3.30575,3.88385 1.95624,2.25524 2.07874,2.88037 0.81136,4.14079 -2.65121,2.63665 -13.14423,7.53872 -19.51302,9.11598 -4.72221,1.16947 -10.8708,1.69903 -12.03854,1.03685 z m -12.4217,-5.48247 c -0.2919,-0.47231 0.35639,-1.49678 1.91218,-3.02178 1.18755,-1.16406 1.73082,-1.52242 2.20607,-1.45521 1.07664,0.15225 0.92682,1.06248 -0.3995,2.42716 -1.76998,1.82117 -3.32897,2.68051 -3.71875,2.04983 z m 26.9887,-3.7447 c -1.04414,-1.15573 -1.13845,-1.91792 -0.25305,-2.04504 0.36818,-0.0529 0.87247,0.2777 1.52424,0.99914 0.81192,0.8987 0.92751,1.16504 0.69454,1.60035 -0.41487,0.77519 -0.88405,0.64285 -1.96573,-0.55445 z m 5.22364,-2.16448 c -0.80097,-0.8794 -1.12924,-1.63582 -0.88287,-2.03445 0.33381,-0.54011 1.40318,-0.14421 2.07881,0.76962 0.47403,0.64116 0.53717,0.91093 0.31179,1.33206 -0.36871,0.68895 -0.83804,0.66803 -1.50773,-0.0672 z M 187.53839,138.251 c -0.0914,-0.23807 -0.0459,-0.62502 0.10104,-0.8599 0.26414,-0.42228 8.1877,-5.66652 9.20979,-6.09554 0.60468,-0.25382 1.4552,0.0962 1.4552,0.5988 0,0.78944 -4.71601,4.2279 -8.26068,6.02289 -1.72875,0.87543 -2.26983,0.94751 -2.50535,0.33375 z m 17.71135,-10.8619 c -2.5876,-2.10278 -2.95248,-2.77398 -1.79476,-3.30147 0.58036,-0.26443 0.82065,-0.17051 2.16977,0.84808 3.32202,2.50816 3.99625,3.38404 3.21009,4.1702 -0.5626,0.56261 -1.09228,0.30896 -3.5851,-1.71681 z m -17.74032,0.65848 c -0.61375,-0.61375 -0.29386,-1.42535 1.5434,-3.91583 1.37861,-1.86877 2.00557,-2.51354 2.44408,-2.51354 1.0293,0 0.84885,0.99499 -0.60805,3.35277 -2.00868,3.25075 -2.63504,3.82099 -3.37943,3.0766 z m 25.11697,-3.21285 c -0.17442,-0.21016 -1.32349,-1.13891 -2.5535,-2.0639 -2.31696,-1.7424 -2.77613,-2.36288 -2.23293,-3.0174 0.61883,-0.74565 1.46691,-0.37879 4.048,1.75106 2.23507,1.84433 2.57645,2.23185 2.50568,2.84427 -0.0623,0.53908 -0.2459,0.72809 -0.76603,0.78855 -0.37626,0.0437 -0.82681,-0.0924 -1.00122,-0.30258 z m 2.28064,-6.56029 c -1.65017,-1.2407 -2.84427,-2.3262 -2.84427,-2.58559 0,-0.57138 0.50881,-1.0821 1.07806,-1.0821 0.57954,0 5.59899,3.82047 5.90487,4.49439 0.27603,0.60815 -0.19694,1.33046 -0.86377,1.31912 -0.23684,-0.004 -1.71054,-0.96965 -3.27489,-2.14582 z m -43.24452,-0.66325 c -0.2157,-0.56209 0.3085,-0.93469 2.73788,-1.94604 1.54068,-0.64139 2.05718,-0.75166 2.47452,-0.52831 0.5991,0.32063 0.68497,0.86811 0.1967,1.25398 -0.60031,0.47441 -3.84739,1.65551 -4.55134,1.65551 -0.39695,0 -0.76181,-0.18509 -0.85776,-0.43514 z m 15.84691,-2.79278 c -0.40891,-0.40891 -0.40389,-0.86907 0.0132,-1.21449 0.43346,-0.35893 8.22782,-2.17217 9.33727,-2.17217 1.31063,0 1.55198,1.43041 0.29084,1.72374 -0.31137,0.0724 -2.31097,0.54764 -4.44355,1.05605 -4.26963,1.01788 -4.73272,1.07194 -5.19779,0.60687 z m -19.5502,-1.43825 c -0.29942,-0.78027 0.33365,-1.27296 2.92077,-2.2731 2.08291,-0.80523 2.67788,-0.93788 3.24295,-0.72304 0.64606,0.24563 0.66626,0.30237 0.30408,0.85386 -0.41607,0.63356 -4.67213,2.55005 -5.69809,2.56583 -0.33199,0.005 -0.67836,-0.18549 -0.76971,-0.42355 z m -3.47393,-3.87552 c -0.4417,-0.53221 -0.088,-0.83045 2.55702,-2.15593 2.70819,-1.35715 3.61316,-1.4659 3.61316,-0.43421 0,0.5555 -0.33906,0.79437 -2.51355,1.77081 -2.7267,1.22442 -3.22734,1.3366 -3.65663,0.81933 z m 21.56011,-0.63053 c -0.29561,-0.2956 -0.19716,-1.0645 0.17594,-1.37414 0.35396,-0.29376 9.06947,-1.88906 10.3204,-1.88906 0.8214,0 1.21645,0.92421 0.64102,1.49964 -0.21737,0.21737 -2.24205,0.7183 -4.69312,1.16113 -4.27143,0.7717 -6.10369,0.94299 -6.44424,0.60243 z m -1.10066,-5.90706 c -0.6867,-0.7588 -0.18486,-1.19759 1.78874,-1.564 0.90699,-0.16839 2.98342,-0.60812 4.6143,-0.97717 3.51403,-0.795205 4.6693,-0.773689 4.7919,0.0892 0.11018,0.77553 -0.28475,0.92906 -4.84671,1.88405 -5.52946,1.15753 -5.79324,1.18112 -6.34823,0.56787 z m -2.14295,-5.429364 c -0.21146,-0.842547 0.27668,-1.447827 1.18138,-1.464861 0.38237,-0.0072 2.5288,-0.346506 4.76985,-0.754012 3.96435,-0.720867 4.08788,-0.727674 4.56406,-0.251493 1.13641,1.136413 0.27993,1.58136 -4.70285,2.443156 -5.12759,0.886844 -5.59613,0.889037 -5.81244,0.02721 z" id="path1" sodipodi:nodetypes="ssssscssssssssssssssssssscsssscsssssssscccsssssssssssssssssscsscsssssscssscsssssssssscssssssssssssscsscssssscssscsssssscssssscsscssssssssssssssssssssssssssssscsssssscssssssssssssssssssssssssssssscsssssssssssssssssscssssssssssssscsssssssscssssssssssssssssssssssscsssssssssssssssssssssssscssscssssssssssssssssssscsssssssssssssssssssssssscssccssssssscsssssssssscssssssssssssssssssssscssssscscsssscsssssssscsssscssssssssssssssscsssssssssssssssssssssssssssssssssssssssscsssssssssscssssscssssssssssssscsscsscssssssssssssssssssssssssssssssssssssssssssssssscccscssssssssssssscssccssssscssssssssscssssssssssssssscssssssssssscsssssssssssssssssssssscssssssscssssssssssssssssssssssssssssssssssssssssssssssssssssssssssssssssssssssssssssssssssssssssssssssssssssssssssssss" style="opacity: 1; mix-blend-mode: overlay; fill: url(&quot;#pattern128&quot;); fill-opacity: 1; stroke: rgb(0, 0, 0); stroke-width: 2; stroke-opacity: 0.903614;" class="svg-elem-7"></path>
  </g>
</svg>
